<svg data-v-0dd9719b="" version="1.0" xmlns="http://www.w3.org/2000/svg" xmlns:xlink="http://www.w3.org/1999/xlink" width="100%" height="100%" viewBox="0 0 340.000000 250.000000" preserveAspectRatio="xMidYMid meet" color-interpolation-filters="sRGB" style="margin: auto;"> <rect data-v-0dd9719b="" x="0" y="0" width="100%" height="100%" fill="#ffffff" fill-opacity="1" class="background"></rect> <rect data-v-0dd9719b="" x="0" y="0" width="100%" height="100%" fill="url(#watermark)" fill-opacity="1" class="watermarklayer"></rect> <g data-v-0dd9719b="" fill="#333333" class="icon-text-wrapper icon-svg-group iconsvg" transform="translate(48.45500183105469,90.35796737670898)"><g class="iconsvg-imagesvg" transform="translate(0,0)"><g><rect fill="#333333" fill-opacity="0" stroke-width="2" x="0" y="0" width="60" height="69.28406466512702" class="image-rect"></rect> <svg filter="url(#colors3033523971)" x="0" y="0" width="60" height="69.28406466512702" filtersec="colorsf8871889920" class="image-svg-svg primary" style="overflow: visible;"><svg xmlns="http://www.w3.org/2000/svg" viewBox="0 0 86.5999984741211 100"><path d="M86.6 25L43.3 0 14.81 16.45v.71-.71L0 25v50l43.3 25 18.3-10.56c0-1.68-.06-47.6-.06-50l-13.47-7.82c0 43.18 0 33.1.06 48.27l-4.83 2.79-5.21-3c0-2-.06-45.12-.07-47.76L25 39.43c0 9.09-.07 32.64-.07 32.64L15 66.34V33.66l23-13.28 5.29-3.06 28.28 16.32v50L86.6 75z" fill="#333"></path></svg></svg> <defs><filter id="colors3033523971"><feColorMatrix type="matrix" values="0 0 0 0 0.98046875  0 0 0 0 0.734375  0 0 0 0 0.03515625  0 0 0 1 0" class="icon-fecolormatrix"></feColorMatrix></filter> <filter id="colorsf8871889920"><feColorMatrix type="matrix" values="0 0 0 0 0.99609375  0 0 0 0 0.99609375  0 0 0 0 0.99609375  0 0 0 1 0" class="icon-fecolormatrix"></feColorMatrix></filter> <filter id="colorsb8324695209"><feColorMatrix type="matrix" values="0 0 0 0 0  0 0 0 0 0  0 0 0 0 0  0 0 0 1 0" class="icon-fecolormatrix"></feColorMatrix></filter></defs></g></g> <g transform="translate(67,6.465782165527344)"><g data-gra="path-name" fill-rule="" class="tp-name iconsvg-namesvg" transform="translate(0,0)"><g transform="scale(1)"><g><path d="M12.42-13L40.99-13 40.99 1.26 42.88 1.26 42.88 7.15 10.48 7.15 10.48 1.26 12.42 1.26 12.42-13ZM12.42-33.88L40.73-33.88 40.73-15.16 12.42-15.16 12.42-33.88ZM2.07-13.63L9.4-13.63 9.4 7.15 2.07 7.15 2.07-13.63ZM9.4-33.75L9.4-26.41 2.07-26.41 2.07-33.75 9.4-33.75ZM9.4-23.76L9.4-16.43 2.07-16.43 2.07-23.76 9.4-23.76ZM19.75-22.09L19.75-20.02 33.44-20.02 33.44-22.09 19.75-22.09ZM19.75-29.02L19.75-27 33.44-27 33.44-29.02 19.75-29.02ZM25.7-7.15L25.7 1.26 27.72 1.26 27.72-7.15 25.7-7.15ZM18.81-7.15L18.81 1.26 20.38 1.26 20.38-7.15 18.81-7.15ZM33.12-7.15L33.12 1.26 34.7 1.26 34.7-7.15 33.12-7.15ZM50.45-33.98L57.78-33.98 57.78 7.29 46.98 7.29 46.98 0.49 50.45 0.49 50.45-12.87 46.98-12.87 46.98-19.71 50.45-19.71 50.45-33.98ZM65.7-33.98L73.03-33.98 73.03 7.29 65.7 7.29 65.7-12.87 60.8-12.87 60.8-19.71 65.7-19.71 65.7-33.98ZM81-33.98L88.29-33.98 88.29 7.29 81 7.29 81-12.87 76.09-12.87 76.09-19.71 81-19.71 81-33.98ZM123.97 0.22L127.22 1.93 131.94 1.93 131.94 7.29 122.04 7.29 117.27 4.23 112.23 7.29 102.33 7.29 102.33 1.93 106.65 1.93 110.47-0.09 102.42-5.22 113.53-5.22 116.91-3.46 124.2-7.29 124.2-7.96 109.66-7.96 109.31-6.61 102.33-6.61 104.53-14.94 111.47-14.94 111.02-13.32 131.49-13.32 131.49-4.27 123.97 0.22ZM131.63-32.13L131.63-26.77 120.91-26.77 120.91-24.66 132.03-24.66 132.03-19.3 130.23-19.3 131.63-15.57 123.75-15.57 122.4-19.3 112.19-19.3 110.84-15.57 102.96-15.57 104.36-19.3 102.56-19.3 102.56-24.66 113.63-24.66 113.63-26.77 102.87-26.77 102.87-32.13 113.63-32.13 113.63-34.06 120.91-34.06 120.91-32.13 131.63-32.13ZM101.11-13.95L99.31 7.29 92.03 7.29 93.78-13.95 101.11-13.95ZM99.31-34.06L101.11-17.28 93.78-17.28 92.03-34.06 99.31-34.06ZM172.8-1.21L174.15 0.36 178.16 0.36 178.16 7.15 170.37 7.15 167.99 4.27 165.47 7.15 156.56 7.15 156.56 0.36 160.97 0.36 162.94-1.67 156.65-9.22 166.09-9.22 168.03-6.88 170.32-9.22 170.32-12.33 156.56-12.33 156.56-19.21 159.79-19.21 159.79-24.07 154.35-24.07 154.35 7.15 147.06 7.15 147.06-30.87 159.79-30.87 159.79-34.11 167.13-34.11 167.13-30.87 177.93-30.87 177.93-21.55 170.59-21.55 170.59-24.07 167.13-24.07 167.13-19.21 177.66-19.21 177.66-6.71 172.8-1.21ZM144.5-13.14L144.5 7.15 137.16 7.15 137.16-13.14 144.5-13.14ZM144.5-23.22L144.5-15.93 137.16-15.93 137.16-23.22 144.5-23.22ZM144.5-33.25L144.5-25.96 137.16-25.96 137.16-33.25 144.5-33.25Z" transform="translate(-2.069999933242798, 34.11000061035156)"></path></g> <!----> <!----> <!----> <!----> <!----> <!----> <!----></g></g> <g data-gra="path-slogan" fill-rule="" class="tp-slogan iconsvg-slogansvg" fill="#f1511b" transform="translate(33.224998474121094,47.400001525878906)"><!----> <!----> <g transform="scale(1, 1)"><g transform="scale(1)"><path d="M5.67-7.13L5.63-7.13L3.66 0L2.44 0L0.19-8.58L1.41-8.58L3.05-1.59L3.09-1.59L5.02-8.58L6.28-8.58L8.20-1.59L8.25-1.59L9.84-8.58L11.11-8.58L8.86 0L7.64 0L5.67-7.13ZM13.50-1.03L18.66-1.03L18.66 0L12.33 0L12.33-8.58L18.56-8.58L18.56-7.59L13.50-7.59L13.50-4.92L18.19-4.92L18.19-3.89L13.50-3.89L13.50-1.03ZM21.56-8.58L25.88-1.64L25.88-8.58L27-8.58L27 0L25.69 0L21.33-6.94L21.28-6.94L21.28 0L20.16 0L20.16-8.58L21.56-8.58ZM29.63-1.03L34.92-1.03L34.92 0L28.17 0L28.17-0.94L33.42-7.59L28.55-7.59L28.55-8.58L34.92-8.58L34.92-7.59L29.63-1.03ZM37.22-5.06L41.72-5.06L41.72-8.58L42.89-8.58L42.89 0L41.72 0L41.72-3.98L37.22-3.98L37.22 0L36.05 0L36.05-8.58L37.22-8.58L37.22-5.06ZM51.47-4.27L51.47-4.27Q51.28-7.64 48.47-7.83L48.47-7.83Q45.61-7.69 45.47-4.27L45.47-4.27Q45.61-0.94 48.47-0.80L48.47-0.80Q51.28-0.98 51.47-4.27ZM52.64-4.27L52.64-4.27Q52.36 0 48.47 0.14L48.47 0.14Q44.53 0 44.25-4.27L44.25-4.27Q44.48-8.72 48.47-8.81L48.47-8.81Q52.36-8.67 52.64-4.27ZM59.67-3.19L59.67-8.58L60.84-8.58L60.84-3.05Q60.70 0.05 57.33 0.14L57.33 0.14Q54.19 0.05 54.05-2.86L54.05-2.86L54.05-8.58L55.22-8.58L55.22-3.19Q55.27-0.84 57.38-0.80L57.38-0.80Q59.67-0.84 59.67-3.19L59.67-3.19ZM65.95-8.58L67.13-8.58L67.13-1.03L71.48-1.03L71.48 0L65.95 0L65.95-8.58ZM72.80-8.58L73.97-8.58L73.97 0L72.80 0L72.80-8.58ZM77.34-8.58L81.66-1.64L81.66-8.58L82.78-8.58L82.78 0L81.47 0L77.11-6.94L77.06-6.94L77.06 0L75.94 0L75.94-8.58L77.34-8.58ZM90.98-3.61L88.36-3.61L88.36-4.59L92.11-4.59L92.11 0L91.36 0L91.08-1.08Q90.09 0.09 88.27 0.14L88.27 0.14Q86.53 0.14 85.59-0.75L85.59-0.75Q84.19-2.06 84.23-4.36L84.23-4.36Q84.56-8.63 88.31-8.81L88.31-8.81Q91.50-8.63 91.97-6L91.97-6L90.84-6Q90.38-7.78 88.27-7.83L88.27-7.83Q85.59-7.64 85.45-4.31L85.45-4.31Q85.45-0.75 88.31-0.75L88.31-0.75Q89.34-0.75 90.09-1.31L90.09-1.31Q91.03-2.06 90.98-3.61L90.98-3.61ZM97.13-7.64L95.06-7.64L95.06-4.97L97.13-4.97Q98.95-4.92 98.91-6.38L98.91-6.38Q98.91-7.64 97.13-7.64L97.13-7.64ZM97.59 0L93.89 0L93.89-8.58L97.69-8.58Q99.98-8.48 100.08-6.42L100.08-6.42Q100.08-5.16 98.95-4.64L98.95-4.64Q100.55-4.08 100.55-2.53L100.55-2.53Q100.41-0.09 97.59 0L97.59 0ZM97.31-3.98L95.06-3.98L95.06-0.98L97.55-0.98Q99.33-1.03 99.38-2.53L99.38-2.53Q99.38-3.98 97.31-3.98L97.31-3.98ZM108.66-4.27L108.66-4.27Q108.47-7.64 105.66-7.83L105.66-7.83Q102.80-7.69 102.66-4.27L102.66-4.27Q102.80-0.94 105.66-0.80L105.66-0.80Q108.47-0.98 108.66-4.27ZM109.83-4.27L109.83-4.27Q109.55 0 105.66 0.14L105.66 0.14Q101.72 0 101.44-4.27L101.44-4.27Q101.67-8.72 105.66-8.81L105.66-8.81Q109.55-8.67 109.83-4.27Z" transform="translate(-0.1875, 8.8125)"></path></g></g></g></g></g><defs v-gra="od"></defs></svg>